<svg width="200" height="200" viewBox="0 0 200 200" fill="none" xmlns="http://www.w3.org/2000/svg">
<path fill-rule="evenodd" clip-rule="evenodd" d="M16.6667 50C16.6667 36.1929 27.8597 25 41.6667 25H158.333C172.141 25 183.333 36.1929 183.333 50V125C183.333 138.807 172.141 150 158.333 150H108.333V158.333H125C129.603 158.333 133.333 162.064 133.333 166.667C133.333 171.269 129.603 175 125 175H75.0001C70.3977 175 66.6667 171.269 66.6667 166.667C66.6667 162.064 70.3977 158.333 75.0001 158.333H91.6667V150H41.6667C27.8597 150 16.6667 138.807 16.6667 125V50ZM41.6667 41.6667C37.0644 41.6667 33.3334 45.3977 33.3334 50V125C33.3334 129.602 37.0644 133.333 41.6667 133.333H158.333C162.936 133.333 166.667 129.602 166.667 125V50C166.667 45.3977 162.936 41.6667 158.333 41.6667H41.6667Z" fill="#C95400"/>
</svg>
