<svg width="188" height="188" viewBox="0 0 188 188" fill="none" xmlns="http://www.w3.org/2000/svg">
<path d="M161.012 160.86L161.013 160.859C164.731 157.141 164.731 151.091 161.013 147.373C159.212 145.573 156.817 144.58 154.269 144.58C151.723 144.58 149.328 145.573 147.526 147.375C143.809 151.091 143.809 157.141 147.527 160.859C151.246 164.576 157.295 164.576 161.012 160.86ZM150.492 157.893C149.484 156.885 148.928 155.543 148.928 154.116C148.928 152.689 149.484 151.347 150.492 150.339C151.502 149.33 152.844 148.774 154.271 148.774C155.697 148.774 157.038 149.33 158.048 150.339C160.13 152.422 160.13 155.81 158.047 157.893C155.964 159.976 152.576 159.976 150.492 157.893Z" fill="#C95400"/>
<path d="M177.653 42.0636C177.655 42.0609 177.658 42.0591 177.66 42.0568C177.665 42.0523 177.669 42.0473 177.673 42.0428L178.248 41.4678L178.234 41.4533C186.781 32.2816 186.593 17.8683 177.659 8.93392C173.235 4.50997 167.354 2.07349 161.098 2.07349C155.12 2.07349 149.488 4.30223 145.139 8.35895L145.125 8.34496L144.55 8.92013C144.545 8.92494 144.54 8.92901 144.536 8.93382C144.533 8.93601 144.532 8.93852 144.529 8.94102L6.93206 146.538L6.98564 146.591C6.21652 147.087 5.6593 147.902 5.52551 148.879L1.00035 181.932C0.862588 182.94 1.20402 183.953 1.9227 184.672C2.53631 185.285 3.36476 185.623 4.2209 185.623C4.36733 185.623 4.5147 185.613 4.66207 185.593L37.7136 181.067C38.6917 180.934 39.5062 180.376 40.0022 179.607L40.0557 179.66L177.653 42.0636ZM161.098 8.57432C165.617 8.57432 169.866 10.3344 173.062 13.5304C178.873 19.3415 179.566 28.3636 175.14 34.9398L151.651 11.4513C154.419 9.58012 157.682 8.57432 161.098 8.57432ZM145.125 17.5383L169.055 41.4677L40.0557 170.467L31.0531 161.465L134.602 57.9176L128.403 51.7197L24.8556 155.268L16.1256 146.538L145.125 17.5383ZM8.02173 178.572L11.7483 151.353L35.2394 174.845L8.02173 178.572Z" fill="#C95400"/>
<path d="M52.9471 84.0234L58.8784 78.0921L11.4141 30.6273L30.7814 11.2595L39.9646 20.4435L33.3018 27.1052L38.5619 32.365L45.2246 25.7036L50.5786 31.0572L43.9159 37.7195L49.176 42.9787L55.8393 36.3173L61.1928 41.6719L51.3359 51.5265L56.5974 56.7867L66.4529 46.9311L72.9809 53.4587L66.3182 60.1223L71.5783 65.3815L78.2411 58.7188L78.2456 58.7237L84.1768 52.7924L33.7466 2.36277C32.1087 0.724454 29.4537 0.724454 27.8158 2.36277L2.51727 27.6616C0.878847 29.2996 0.878847 31.955 2.51727 33.5929L52.9471 84.0234Z" fill="#C95400"/>
<path d="M185.801 154.399C185.725 154.323 185.646 154.25 185.567 154.181L132.793 101.408L117.005 117.196L122.254 122.445L132.111 112.589L176.896 157.373L157.527 176.74L107.494 126.707L101.562 132.639L154.561 185.637C156.199 187.276 158.854 187.276 160.493 185.637L185.793 160.339C185.795 160.336 185.798 160.334 185.801 160.33C187.439 158.693 187.439 156.037 185.801 154.399Z" fill="#C95400"/>
</svg>
